<?xml version="1.0" standalone="no"?>
<!DOCTYPE svg PUBLIC "-//W3C//DTD SVG 20010904//EN"
 "http://www.w3.org/TR/2001/REC-SVG-20010904/DTD/svg10.dtd">
<svg version="1.0" xmlns="http://www.w3.org/2000/svg"
 width="200.000000pt" height="200.000000pt" viewBox="0 0 200.000000 200.000000"
 preserveAspectRatio="xMidYMid meet">

<g transform="translate(0.000000,200.000000) scale(0.100000,-0.100000)"
fill="#000000" stroke="none">
<path d="M888 1817 c-103 -39 -182 -110 -226 -206 -35 -75 -37 -199 -4 -281
32 -80 99 -153 180 -192 61 -30 74 -33 162 -33 82 0 103 4 152 27 32 15 79 48
106 75 183 183 129 481 -106 591 -68 32 -202 41 -264 19z m199 -82 c68 -20
143 -88 172 -156 49 -112 20 -242 -70 -323 -113 -101 -265 -101 -378 0 -225
203 -16 566 276 479z"/>
<path d="M599 1062 c-79 -21 -154 -68 -214 -134 -91 -101 -119 -206 -113 -420
3 -122 5 -138 31 -190 16 -33 45 -70 67 -88 76 -60 73 -60 634 -60 l511 0 50
24 c63 29 128 101 145 159 8 29 11 103 8 223 l-3 180 -38 76 c-61 124 -170
208 -307 237 -49 11 -57 10 -80 -9 -176 -141 -384 -147 -556 -16 -54 41 -48
40 -135 18z m123 -112 c165 -110 392 -110 557 1 52 34 66 40 93 34 99 -22 210
-121 247 -220 18 -48 21 -78 21 -216 0 -169 -9 -208 -57 -251 -52 -47 -63 -48
-583 -48 -520 0 -531 1 -583 48 -48 43 -57 82 -57 251 0 203 13 246 104 337
56 56 138 102 185 103 7 1 40 -17 73 -39z"/>
<path d="M1036 801 c-9 -15 -126 -434 -126 -453 0 -24 35 -41 58 -29 27 14
149 455 132 476 -13 16 -56 20 -64 6z"/>
<path d="M712 646 c-34 -35 -62 -72 -62 -81 0 -25 119 -145 145 -145 25 0 45
18 45 39 0 8 -20 36 -45 61 l-45 46 45 44 c46 45 54 67 33 88 -25 25 -55 12
-116 -52z"/>
<path d="M1172 698 c-21 -21 -13 -43 33 -88 l44 -44 -45 -48 c-49 -52 -52 -72
-17 -95 22 -15 26 -12 93 53 38 37 70 74 70 83 0 9 -28 46 -61 84 -61 67 -91
81 -117 55z"/>
</g>
</svg>
